<?xml version="1.0" encoding="UTF-8"?>
<!DOCTYPE svg PUBLIC "-//W3C//DTD SVG 1.1//EN" "http://www.w3.org/Graphics/SVG/1.1/DTD/svg11.dtd">
<!-- Creator: CorelDRAW (Evaluation Version) -->
<svg xmlns="http://www.w3.org/2000/svg" xml:space="preserve" width="215mm" height="215mm" version="1.1" style="shape-rendering:geometricPrecision; text-rendering:geometricPrecision; image-rendering:optimizeQuality; fill-rule:evenodd; clip-rule:evenodd"
viewBox="0 0 21499.98 21500"
 xmlns:xlink="http://www.w3.org/1999/xlink"
 xmlns:xodm="http://www.corel.com/coreldraw/odm/2003">
 <defs>
  <style type="text/css">
   <![CDATA[
    .str0 {stroke:#FEFEFE;stroke-width:700;stroke-miterlimit:22.9256}
    .fil7 {fill:none}
    .fil0 {fill:#FEFEFE}
    .fil6 {fill:#006137}
    .fil5 {fill:#EC1D25}
    .fil1 {fill:#ED3237}
    .fil4 {fill:#FE9900}
    .fil2 {fill:#FEFEFE}
    .fil3 {fill:#FFF200}
   ]]>
  </style>
   <clipPath id="id0">
    <path d="M10742.86 3250.52c4142.14,0 7500.01,3357.86 7500.01,7500.01 0,4142.14 -3357.86,7500.01 -7500.01,7500.01 -4142.14,0 -7500.01,-3357.86 -7500.01,-7500.01 0,-4142.14 3357.86,-7500.01 7500.01,-7500.01z"/>
   </clipPath>
 </defs>
 <g id="Layer_x0020_1">
  <metadata id="CorelCorpID_0Corel-Layer"/>
  <path class="fil0" d="M3303.87 0.53l14877.96 0c1828.29,0 3310.99,1791.23 3310.99,3999.99l0.03 13500.01c-0.03,2208.73 -1482.73,3999.97 -3311.04,3999.97l-14877.93 0.03c-1828.29,-0.03 -3310.99,-1791.26 -3310.99,-4000.02l-0.03 -13499.98c0.03,-2208.76 1482.73,-3999.99 3311.04,-3999.99l-0.03 -0.01z"/>
  <path class="fil1" d="M3822.87 750.53l13839.97 0c1700.73,0 3079.99,1666.26 3079.99,3720.92l0.03 12558.15c-0.03,2054.63 -1379.29,3720.9 -3080.04,3720.9l-13839.94 0.03c-1700.74,-0.03 -3080,-1666.29 -3080,-3720.95l-0.02 -12558.12c0.02,-2054.66 1379.28,-3720.92 3080.03,-3720.92l-0.02 -0.01z"/>
  <g id="_1917716708560">
  </g>
  <g id="_2692273086720">
  </g>
  <g id="_2051551506112">
  </g>
  <g>
  </g>
  <g style="clip-path:url(#id0)">
   <g id="_2051551505536">
    <circle class="fil2" cx="10742.86" cy="10750.53" r="7187.51"/>
    <path class="fil3" d="M11446 10570.79c0.7,-1.17 2.16,-4.22 2.54,-3.24 0.37,0.95 2.1,-2.63 2.63,-3.21 25.94,-26.54 451.39,-329.12 538.87,-397.57l511.24 -375c22.82,-16.25 24.7,-11.4 31.15,-36.04l-1374.43 10.74c-19.18,-27.22 -69.09,-193.23 -84.71,-237.18 -22.64,-63.69 -55.57,-187.07 -83.03,-236.66 -116.55,-14.93 -439.7,16.39 -538.7,-1.65l-9.3 4c-0.35,34.22 -138.05,462.85 -149.99,480.22l-1372.3 12.77c2.82,27.97 -0.64,13.58 52.64,51.91l918.37 648.65c42.93,30.51 78.78,53.69 120.4,85 45.15,34 92.94,20.41 191.97,19.75 138.36,-0.95 278.57,-0.16 416.75,-3.65 135.92,-3.43 277.21,-1.78 415.1,-3.94l361.76 -3.01c32.96,-0.29 27.4,-1.14 48.99,-11.88l0.06 0 -0.01 -0.01z"/>
    <polygon class="fil4" points="10237.62,4581.48 11113.2,4581.48 10990.67,4466.38 10355.13,4466.38 "/>
    <polygon class="fil4" points="9814.56,5010.36 11536.34,5010.36 11420.72,4895.27 9927.4,4895.27 "/>
    <polygon class="fil4" points="9385.71,5442.16 11965.11,5442.16 11849.57,5327.07 9498.55,5327.07 "/>
    <polygon class="fil4" points="8955.21,5872.55 12395.65,5872.55 12280.11,5757.45 9068.08,5757.45 "/>
    <polygon class="fil4" points="10565,4259.51 10785.89,4259.51 10675.87,4149.4 "/>
    <path class="fil5" d="M7443.24 7396.35l-1203.2 1216.06c-128.21,129.07 -266.1,268.25 -401.83,406.63l-604.23 608.36c-65.79,67.89 -131.29,140.69 -199.97,204.25 -159.57,147.68 -240.47,253.37 -403.45,405 -69.34,64.52 -133.45,135.8 -199.92,204.32 -34.83,35.93 -187.55,175.67 -201.45,208.08l1504.95 -12.25c33.3,-0.47 39.27,-7.65 56.8,-24.1l632.46 -637.98c54.45,-54.93 104.3,-107.07 158.59,-162.22l951.64 -960.31c518.1,-532.48 1062.33,-1064.7 1580.01,-1596.02l909.89 -918.65c19.57,-20.41 31.44,-26.1 37.28,-43.81 -96.74,9.28 -1333.57,13.11 -1463.45,14.06 -486.73,3.53 -975.33,8.54 -1464.28,13.4 -240.16,2.39 -486.99,7.34 -729.2,6.45 -34.41,-0.12 -60.23,-6.88 -35.53,17.92 176.94,177.8 1059.88,1017.4 1074.9,1050.88l0 -0.06 -0.01 -0.01z"/>
    <path class="fil4" d="M8795.51 10979.44c-60.97,-14.92 -1245.82,9.3 -1468.79,8.19 -37.15,-0.19 -71.09,-14.74 -75.79,21.05 18.7,6.41 158.44,18.64 191.49,21.63 125.35,11.3 259.23,36.67 387.8,48.73l975.14 115.6c-11.53,24 -142.24,80.97 -164.53,92.84l-1111.35 579.54c-15.65,8.16 -30.33,15.17 -42.76,21.62 -27.4,14.23 -30.99,9.63 -38.74,35.15 52.86,0.93 1032.7,-210.95 1123.19,-231.2 62.51,-14 124.17,-25.91 188.02,-38.51 47.38,-9.36 151.13,-37.69 192.28,-38.61 -14.48,32.51 -108.71,99 -138.88,123.51l-802.13 680.85c-19.18,15.15 -51.98,40.49 -73.85,60.8 -27.75,25.75 -130.12,101.77 -137.54,130.69 36.32,1.71 592.77,-263.52 698.19,-310.07 64.61,-28.54 629.66,-298.58 693.38,-314.78 -5.01,24.8 -35.46,51.09 -51.91,75.47l-200.15 267.88c-11.52,14.41 -14.64,21.05 -26.47,37.63l-573.69 766.22c-9.28,12.41 -16,22.51 -27.44,36.55 -17.69,21.65 -23.36,15.98 -24.76,49.5 27.71,-7.9 126.69,-89.12 155.04,-111.89 146.81,-117.76 321.81,-238.95 458.56,-350.38 53.27,-43.44 96.77,-71.25 152.75,-117.1 51.6,-42.27 429.14,-334.8 458.48,-346.88 -5.28,37.4 -481.06,1091.75 -533.82,1210.5 -15.81,35.59 -77.79,145.93 -63.79,174.85 39.03,-13.46 92.08,-106.24 125.52,-139.04l545.85 -653.41c35.05,-44.86 285.75,-349.95 307.11,-362.59 -25.62,121.45 -46.29,241.12 -71.02,365.67 -25.18,126.68 -49.85,251.01 -72.93,374.3 -12.47,66.55 -144.97,706.09 -138.46,751.17 28.64,-7.65 40.39,-49.08 53.21,-74.96l388.81 -764.06c27.09,-52.45 244.77,-496.79 259.37,-504.87 6.45,46.93 6.53,133.7 10.7,184.28 5.01,60.74 1.3,133.95 2.35,196.4 1.05,64.61 10.57,125.6 11.23,185.7 0.77,67.54 -0.28,136.24 2.19,203.65 2.45,66.32 9.34,123.16 9.98,191.49l12.7 382.96c0.37,36.41 -2.77,172.11 4.66,196.38 28.54,-1.43 25.52,-42.27 34.99,-80.2l304.8 -1227.87c12.82,-50.42 26.88,-145.35 47.21,-190.21l15.24 42.96c55.79,230.44 125.79,475.3 189.01,706.66 35.46,129.89 63.88,244.42 100.08,373.61 17.08,61.05 31.62,115.6 50.26,184.08 11.34,41.63 25.46,130.78 43.37,168.32 8.07,16.88 -2.22,11.11 14.89,17.01 17.43,-28.23 5.46,-143.1 4.7,-184.34 -1.3,-68.42 6.48,-124.52 6.8,-191.49 0.29,-65.95 -2,-132.17 -1.77,-197.9 0.22,-63.02 7.56,-124.49 7.52,-191.49 0,-260.63 11.28,-519.52 10,-778.53 23.05,12.76 437.14,815.75 496.25,924.15 17.11,31.37 32.2,57.37 47.4,87.12l157.45 297.59c10.86,22.39 9.3,33.21 32.74,38.33 8.7,-19.57 -63.46,-324.31 -73.21,-369.42 -21.28,-98.46 -235.55,-1069.27 -237.34,-1126.07 24.86,14.63 47.25,43.85 64.96,65.6l243.2 282.86c147.39,167.04 285.63,336.55 434.28,502.06l59.21 69.15c22.1,27.3 40.8,47.28 62.64,72.01 20.7,23.4 41.46,52.27 62.04,72.58 20.38,20.12 35.85,55.34 67.95,66.45 13.4,-26.74 -51.28,-139.25 -65.79,-170.56 -26.64,-57.34 -54.01,-113.35 -79.38,-170.53 -70.96,-159.8 -475.04,-989.42 -476.89,-1033.77 19.47,5.13 195.97,138.58 231.14,166.27 12.54,9.88 22.74,19.36 35.69,28.7 116.96,84.43 239.61,165.99 352.43,257.46 127.06,103.03 256.03,187.08 388.58,285.4 25.92,19.24 49.44,36 78.14,57.03 26.29,19.24 50.39,35.81 77.95,56.8 14.45,11.01 21.59,14.64 37.44,26.64 23.87,18.03 14.1,23.68 47.34,25.33 -6.99,-27.15 -36.68,-52.03 -54.17,-75.72 -20.63,-27.94 -36.51,-48.23 -58.67,-76.04 -159.55,-200.02 -309.44,-406.34 -471.86,-605.21 -44.29,-54.23 -338.27,-425.99 -352.12,-458.15 48.14,8.7 287.82,119.78 357.57,151.82l708.33 307.57c71.82,30.38 309.05,145.22 363.13,151.12 -18.1,-28.95 -378.94,-313.37 -445.74,-368.59 -146.05,-120.84 -301.09,-254.31 -452.25,-369.51 -27.02,-20.6 -290.06,-234.44 -298.04,-248.86 45.88,2.06 140.08,26.53 186.95,34.73l948.15 178.25c49.32,9.47 349.83,76.97 373.26,63.09 -10.83,-28.99 -306.27,-162.81 -335.69,-177.55 -109.54,-54.86 -228.48,-111.95 -347.73,-173.61l-519.3 -258.29c-23.94,-11.81 -161.51,-71.34 -165.86,-88.04 135.35,-20.73 259.36,-31.56 390.65,-54.77 61.56,-10.89 131.35,-12.41 192.85,-25.59 63.44,-13.59 131.82,-17.21 197.26,-27.46l388.4 -55.56c96.9,-7.82 252.19,-43.75 342.33,-47.09 32.61,-1.21 30.57,4.76 38.99,-19.4 -48.74,-22.26 -1146.88,5.24 -1368.06,6.92 -322.55,2.42 -78.55,-55.31 -307.85,526.52 -74.45,188.91 -180.91,361.85 -309.46,516.92 -46.29,55.85 -90.9,104.96 -136.01,146.43 -26.27,24.12 -47.88,47.27 -69.25,65.56 -119.44,102.26 -318.39,245.01 -463.84,300.29l-150.05 61.87c-76.14,26.29 -139.25,47.59 -211.39,65.79 -64.49,16.25 -170.85,38.64 -235.49,42.58 -52.51,3.21 -68.98,9.77 -122.52,9.93 -47.28,0.17 -94.65,1.18 -141.99,1.49 -204,1.4 -401.35,-34.14 -590.86,-97.47 -101.95,-34.07 -204.79,-73.95 -294.99,-123.64 -92.11,-50.74 -175.04,-97.64 -257.94,-159.29 -78.42,-58.29 -153.92,-125.38 -222.31,-195.3 -21.91,-22.41 -39.15,-42 -66.04,-68.68 -25.56,-25.3 -39.69,-50.28 -64.33,-76.73 -51.91,-55.75 -130.75,-177.8 -170.81,-246.13 -15.27,-26.04 -32.92,-63.62 -48.29,-92.14 -61.25,-113.53 -124.46,-274.7 -149.82,-402.58l-45.63 -233.59 -0.06 -0.19 0.03 0.06z"/>
    <path class="fil5" d="M11911.81 10579.33c-59.34,7.84 -312.32,0.54 -412.21,2.29 -27.09,0.47 -44.41,7.3 -53.56,-10.83 0.7,-1.17 2.16,-4.22 2.53,-3.24 0.38,0.95 2.1,-2.63 2.64,-3.21 25.94,-26.54 451.39,-329.12 538.86,-397.57l511.24 -374.97c22.83,-16.28 24.7,-11.4 31.15,-36.06l-1374.42 10.74c-19.18,-27.21 -69.09,-193.23 -84.72,-237.18 -22.63,-63.68 -55.56,-187.07 -83.02,-236.66 -116.55,-14.92 -439.7,16.39 -538.7,-1.65 6.63,-45.53 105.5,-336.39 128.87,-410.91l126.71 -392.3c0.52,-0.95 2.42,-1.72 2.83,-4 0.37,-2.29 1.84,-2.7 2.95,-3.94 14.99,14.7 6.66,3.42 15.24,25.21 2.88,7.34 4.51,14.13 7.87,24.51l118.69 354.39c40.99,131.04 92.94,272 136.11,401.42 61.63,13.83 306.27,1.83 386.43,1.11l1922.21 -17.21c198.38,-1.75 589.77,-14.13 764.96,-6.04 -0.07,-24.93 -32.55,-42.93 -49.94,-59.69l-170.91 -162.85c-143.87,-141.1 -323.13,-307.28 -450.41,-441.39 -70.83,-74.61 -151.26,-144.3 -226.35,-216.54 -227.01,-218.37 -452.08,-446.66 -680.17,-660.94 -31.18,-29.27 -76.26,-75.41 -112.36,-112.17 -37.94,-38.64 -70.39,-65.03 -110.59,-104.84l170.85 -172.81c58.45,-59.44 104.01,-105.89 168.21,-171.83 33.46,-34.35 324.58,-316.13 336.68,-345.25l-2654.62 23.53c11.4,-24.54 136.17,-144.36 165.16,-174.66l330.27 -337.09c55.11,-53.4 40.28,-38.96 126.17,-39.69 490,-4.16 994.6,0.64 1481.74,-12.76 432.69,-11.88 880.81,-8.76 1317.75,-12.25 435.78,-3.49 880.43,-12.52 1319.67,-12.39 -20.23,32.29 -361.77,370.3 -403.45,413.2l-661.48 669.64c11.71,27.97 77.5,82.86 101.95,106.36 36.55,35.11 68.39,65.38 104.3,101.06 74.1,73.63 134.56,134.34 203.86,200.32 138.75,132.05 273.09,266.35 410.82,397.7l2254.85 2191.96c36.29,35.15 68.1,65.82 104.55,100.78 15.24,14.6 93,82.24 91.29,104.14 -55.21,-14.23 -1235.12,5.87 -1327.19,6.45l-3321.69 30.7c-114.08,0.95 -601.89,-0.73 -671.64,7.33l0.03 0.1 -0.01 -0.02zm-465.77 -8.54c-21.59,10.7 -16.04,11.56 -48.99,11.88l-361.76 3.01c-137.87,2.16 -279.18,0.51 -415.11,3.94 -138.17,3.48 -278.38,2.7 -416.75,3.65 -99.02,0.7 -146.77,14.25 -191.96,-19.75 -41.62,-31.34 -77.47,-54.49 -120.4,-85l-918.38 -648.65c-53.27,-38.29 -49.85,-23.94 -52.63,-51.92l1372.3 -12.76c11.97,-17.36 149.64,-445.99 149.99,-480.22l-1857.79 17.15c-23.44,9.81 -776.39,789.85 -970.57,979.07 -50.8,49.5 -121.22,117.58 -164.75,162.46l-119.82 123.95c-14.04,14.42 -33.05,22.93 -33.18,46.68 55.19,-11.11 573.05,-9.49 675.58,-10.48l1367.38 -12.66c226.66,-2.31 467.38,-10.95 692.6,-4.39 -5.28,64.08 -76.65,251.72 -100.24,328.11 -27.03,87.5 -301.46,932.58 -306.58,970.53 42.39,-8.53 808.97,-598.2 973.08,-706.37 38.99,-25.71 101.47,-83.66 140.75,-101.15l982.63 691.26c26.06,18.64 124.05,91.79 145.98,97.56l-326.2 -966.15c-17.15,-49.78 -108.46,-297.05 -103.91,-326.61l200.66 -1.94 -191.92 -11.17 0 -0.04 -0.01 0.01z"/>
    <path class="fil6" d="M17930.39 10922.52l0 -428.03c-11.83,-29.05 -25.33,-350.39 -31.71,-417.29 -12.7,-133.41 -28.39,-262.76 -48.51,-394.17 -38.16,-249.49 -88.01,-495.49 -150.15,-730.98 -216.54,-820.39 -515.59,-1458.21 -960.15,-2145.54 -110.94,-171.55 -176.75,-244.76 -278.52,-388.27 -54.07,-76.27 -291.33,-362.14 -351.43,-424.34 -19.65,-20.33 -27.82,-30 -53.34,-56.04l-106.33 -111.7c-179.76,-181.55 -261.23,-265.56 -455.9,-435.86 -49.56,-43.34 -195.55,-172.63 -240.95,-202.28l-144.34 -112.4c-13.21,-10.51 1.4,0.1 -14.66,-10.99l-158.59 -117.92c-108.42,-81.21 -244.28,-157.26 -332.1,-219.8 -88.45,-62.99 -220.97,-128.65 -279.62,-170.15 -38.14,-26.99 -383.29,-201.65 -435.51,-226.92 -497.53,-240.92 -1113.26,-457.13 -1661.42,-562.42 -529.85,-101.76 -1064.16,-158.81 -1631.07,-141.39 -558.9,17.21 -1066.03,87.79 -1574.04,213.1 -869.82,214.6 -1746.44,618.94 -2442.46,1119.89 -322.61,232.19 -677.9,524.35 -959.17,812.45 -533.27,546.17 -1058.55,1237.94 -1444.27,2107.22 -1261.53,2842.68 -515.57,5948.86 1473.51,7917.75 131.6,130.27 216.66,204.97 351.5,322.36 114.2,99.44 240.41,208.09 365.38,295.91 85.27,59.91 166.31,119.7 257.59,185.78 308.1,223.07 791.43,480.72 1140.84,638.65 1363.43,616.24 3010.66,815.4 4540.89,471.3 236.73,-53.21 486.35,-116.59 701.33,-191.99l369.63 -132.4 579.34 -256.6c196.13,-94.84 384.12,-206.31 570.2,-316.86 207.27,-123.13 629.54,-417 778.54,-550.74l300.99 -257.34c22.35,-21.36 33.88,-37.62 54.33,-54.77 39.33,-32.93 73.85,-65.15 112.67,-105.6 24.64,-25.65 34.58,-35.5 59.38,-56.33l163.8 -169.57c54.28,-60.04 162.5,-169.23 211.3,-231.33l483.07 -626.36c99.15,-129.29 347.48,-551.22 415.97,-686.25 51.15,-100.84 98.73,-191.72 147.47,-294.49 358.08,-754.73 582.8,-1593.63 652.65,-2442.76l23.88 -414.56 0 0 -0.02 0.04 0 -0.01zm-7350.84 -7089.04c-140.5,10.13 -277.53,7.59 -415.1,21.75 -515.43,53.05 -966.28,127.04 -1460.86,275.88 -429.51,129.25 -845.06,296.32 -1237.96,504.89 -95.89,50.92 -190.98,98.55 -281.28,155.39l-199.55 122.07c-125.47,73.69 -467.01,312.78 -573.18,402.85l-6.95 6.04c-1.05,0.86 -2.48,2.06 -3.53,2.92 -1.05,0.83 -2.54,2 -3.62,2.83l-108.33 84.1c-14.32,10.45 -12.6,10.19 -27.21,24.16 -60.99,58.49 -143.83,116.71 -208.79,176.31l-200.03 190.92c-0.98,0.88 -2.45,2.12 -3.42,3.05 -61.6,58.13 -125.06,114.83 -179.33,180.37l-260.76 284.45c-187.7,237.68 -280.26,341.03 -467.59,616.08 -60.45,88.77 -113.06,176.31 -168.33,260.76l-161.99 273.88c-50.43,93.78 -100.84,188.15 -149.17,286.51 -46.86,95.35 -96.32,196.09 -138.27,297.09 -123.35,297.02 -259.65,648.59 -336.33,963.07 -57.91,237.59 -122.11,464.61 -150.3,712.61 -20.88,183.86 -65.37,400.27 -67.25,587.43 -0.53,54.74 -5.4,144.34 -11.27,202.25 -25.53,251.43 13.65,973.33 62.14,1225.56l59.97 367.37c22.48,116.4 52.33,242.35 80.78,352.27 73.95,285.58 158.08,555.11 260.88,821.72 59.92,155.45 130.65,308.16 197.33,455.8 84.9,187.97 193.01,388.3 300.84,564.08 25.91,42.22 57.21,89.27 80.14,131.1 53.46,97.5 241.93,363.82 306.92,449.67 8.58,11.3 12.41,16.19 22.83,28.48 47.4,55.75 111.6,154.27 167.48,217.26l464.85 516.48c19.4,19.34 34.97,29.65 56.43,52.8l137 131.89c96.55,103 352.14,313.87 465.43,395.12 12.76,9.15 18.35,16.99 30.7,27.44l252.1 184.21c42.67,29.4 87.31,60.86 129.82,88.55l263.94 166.05c40.96,24.58 93.91,57.66 136.81,82.24l69.63 39.4c369.98,200.19 729.3,364.59 1128.42,505.24 50.52,17.81 108.75,34.26 163.74,53.5 113.03,39.52 222.6,69.79 339.03,98.55 117.16,28.92 235.42,60.64 354.94,84.17 516.6,101.67 1035.68,162.57 1602.07,145.74 142.69,-4.22 474.92,-15.3 611.48,-40.2 52.22,-9.52 143.41,-18.06 194.97,-22.99 61.98,-5.87 126.24,-17.58 186.79,-28.38 295.28,-52.62 595.69,-115.03 883.19,-204.79l328.68 -108.2c109.82,-40.41 208.27,-79.48 315.5,-122.28 25.11,-10 48.55,-23.08 75.08,-33.93 28.39,-11.63 49.94,-18.29 78.74,-31.22 231.49,-103.53 506.89,-234.85 719.27,-366.36 41.62,-25.75 90.26,-56.61 132.23,-79.54 133.13,-72.67 443.1,-294.92 578.9,-397.6l183.17 -144.21c69.62,-52.1 291.4,-249.4 348.49,-306.74 113.57,-114.07 241.83,-227.32 348.87,-349.97 14.93,-17.12 16.1,-15.94 28.64,-29.05l101.7 -116.4c61.54,-79.79 133.39,-149.39 196.44,-233.27l94.17 -123.72c79.19,-89.92 280.93,-385.52 355.95,-509.78l123.35 -203.36c368.37,-638.3 623.44,-1295.22 786.29,-2036.19 12.93,-58.74 21.46,-119.89 33.09,-178.53 83.54,-421.9 131.25,-988.06 112.24,-1407.58 -15.09,-333.15 -24.1,-478.37 -64.33,-797.68 -58.2,-461.84 -187.77,-945.68 -345.12,-1381.48 -113.64,-314.7 -245.02,-606.01 -401.29,-898.9l-323.85 -541.5c-51.85,-67.32 -115.89,-175.68 -178.22,-257.65l-306.73 -392.22c-13.05,-14.06 -13.92,-16.98 -25.72,-31.87 -119.98,-151.23 -472.72,-517.15 -614.36,-630.24 -47.05,-37.56 -96.59,-93.38 -143.47,-132.63 -133.99,-112.11 -283.76,-232.02 -425.04,-332.48l-191.62 -136.05c-111.06,-79.07 -355.97,-233.88 -466.97,-290.68 -13.28,-6.8 -22.7,-9.94 -34.48,-17.34 -240.53,-150.69 -813.02,-413.57 -1083.85,-497.61l-245.3 -82.71c-220.72,-67.6 -462.56,-126.65 -692.66,-181.29 -245.9,-58.39 -504.29,-80.61 -756.29,-114.75 -64.14,-8.7 -137.39,-8.19 -205.43,-14.58 -179.8,-16.86 -455.16,-28.7 -626.59,-16.35l0.29 -0.03 -0.02 -0.02z"/>
    <path class="fil6" d="M15031.03 10860.26c-10.29,42.76 -13.34,182.43 -17.36,238.02 -20.13,279.36 -80.55,612.65 -167.7,879.38 -65.28,199.71 -134.18,378.36 -220.5,567.69 -8.39,18.38 -13.12,28.32 -21.05,42.51l-63.44 128.69c-34.96,63.95 -63.21,114.17 -93.7,169.28 -148.81,269.09 -354.78,530.29 -562.86,751.69l-110.59 113.48c-9.34,8.64 -8.83,9.4 -18.58,19.91l-166.17 154.63c-11.53,9.48 -22.58,18.45 -35.65,28.92 -27.28,21.88 -45.57,41.5 -72.14,62.39 -72.99,57.34 -143.06,116.52 -221.33,170.37 -263.23,181.04 -454.97,293.53 -753.46,434.75l-180.85 76.65c-198.44,77.32 -392.63,139.25 -605.19,186.38 -137.35,30.45 -296.07,65.72 -446.69,81.56 -667.89,70.2 -1238.7,20.16 -1867.09,-175.35 -238.06,-74.07 -523.05,-193.04 -734.66,-313.79l-329.21 -197.16c-63.79,-39.52 -211.33,-142.24 -265.12,-190.91l-109.37 -89.35c-26.99,-20.16 -51.4,-39.03 -74.2,-60.93 -26.16,-25.11 -42.58,-36.1 -67.63,-60.67 -99.7,-97.83 -201.16,-184.05 -289.75,-293.73l-239.59 -286.7c-44.57,-63.54 -101.97,-127.76 -138.58,-194.72l-101.6 -161.17c-37.34,-54.1 -64.39,-108.52 -96.49,-165.92 -96.08,-171.8 -174.88,-346.9 -247.11,-534.99 -49.47,-128.78 -86.84,-266.35 -128.43,-395.51 -36.1,-112.05 -75.09,-313.54 -92.14,-434.19 -22.06,-156.38 -38.86,-309.09 -51.15,-472.19l-1411.29 13.3c-9.36,79.13 20.54,395.99 33.28,483.3 51.15,351.21 124.24,728.21 237.87,1061.09 16.68,48.84 47.28,146.15 70.65,190.15 66.84,-24.64 472.73,-177.16 507.88,-176.81 50.64,119.22 94.07,238.92 148.3,358.4 12.39,27.3 49.4,89.97 53.79,120.81 -28.8,17.18 -79,39.5 -115.23,56.96l-362.07 176.44c3.3,31.34 146.87,303.4 194.15,370.34l366.01 544.33c37.81,49.33 114.24,168.05 155.64,192.75 77.19,-55.15 371.25,-311.4 419.22,-333.57l170.28 195.1c36.16,45.25 156.56,147.7 180.5,193.84 -57.88,75.83 -291.46,289.4 -371.66,376.59 39.91,73.5 413.51,375.86 492.43,433.39l131 100.01c48.74,32.06 84.65,66.49 134.05,97.21 47.5,29.53 92.24,62.33 139.35,91.77 47.22,29.46 91.79,63.21 143.13,87.91 54.16,-47.91 247.61,-420.28 290.26,-450.57 49.18,20.68 170.92,96.78 223.33,128.02 41.5,24.7 74.55,36.86 118.27,60.96 29.28,16.13 97.7,44.55 115.89,64.04 -13.05,36.57 -36.39,78.77 -55.15,117.82 -29.97,62.43 -156.62,313.12 -169.04,360.12 139.04,76.3 292.74,132.36 440.85,189.9 181.04,70.36 454.98,150.15 642.94,197.55 35.92,9.05 145.48,43.4 173.39,28.57l115.35 -509.94c55.05,-0.53 410.4,72.97 522.86,80.68l-55.66 526.74c63.91,24.12 244.25,18.86 323.85,31.17 71.54,11.05 263.94,9.78 344.3,9.18 110.59,-0.83 595.48,-24.39 659.93,-53.12l-62.33 -524.92c89.42,-8.99 175.27,-28.06 265.43,-41.24 79.79,-11.69 167.39,-40.1 252.82,-50.84l125.95 513.47c88.14,9.21 528.61,-143.13 657.71,-188.85 70.77,-25.09 537.02,-201.14 590.65,-258.54 -14.99,-36.23 -39.47,-79.79 -57.44,-115.6 -20.7,-41.21 -38.45,-79.5 -59.15,-120.14 -36.74,-72.2 -90.26,-160.65 -116.65,-238.57l342.36 -189.56c18.33,-11.77 92.61,-60.32 116.18,-64.92 26.53,33.09 47.85,72.14 72.07,108.46 72.51,108.88 134.71,229.05 218.19,333.38 56.04,-14.06 332.04,-211.9 413.13,-280.8 12.41,-10.54 18.82,-15.65 32.92,-24.77l19.46 -12.7c99.09,-76.26 233.9,-189.45 326.14,-277.27 43.34,-41.24 78.33,-70.58 119.1,-111.93 38.61,-39.15 79.34,-74.23 117.44,-116.2 -13.11,-25.23 -70.84,-73.25 -93.63,-95.12l-285.62 -281.46 344.3 -391.67c62.14,21.34 377.6,309.34 434.66,323.25 13.88,-19.77 27.65,-41.65 44.87,-63.6 75.5,-96.26 175.9,-226.91 237.42,-326.83 28.48,-46.27 58.04,-91 87.19,-136.76 85.27,-133.82 173,-286.96 242.35,-430.15 24.45,-50.45 58.39,-100.26 76.01,-155.1 -25.15,-26.12 -78.42,-42.8 -114.84,-59.02 -123.47,-54.99 -252.35,-109.76 -367.98,-171.8 3.48,-41.09 80.55,-188.28 100.17,-237.34 29.59,-74.01 67.15,-168.75 91.83,-249.11l513.17 170.02c22.35,-48.8 46.16,-131.25 64.55,-189.1 65.38,-205.96 107.66,-400.34 151.26,-616.71 28.95,-143.83 48.64,-296.74 66.62,-447.14 11.05,-92.55 25.21,-260.82 25.43,-357.19 0.13,-50.45 0.77,-80.65 7.4,-129.31l-1418.36 12.39 -0.04 -0.19 -0.01 0.03zm222.15 51.43c-31.21,483.37 -104.84,931.62 -272.26,1365.07 -50.8,131.54 -101.57,261.42 -162.73,388.59 -142.3,295.81 -352.39,633.57 -551.85,877.47 -10.82,13.24 -21.81,22.58 -33.15,37.21 -116.05,149.89 -262.64,293.63 -401.22,426.44 -107.79,103.29 -219.62,188.92 -333.92,282.39 -104.77,85.63 -367.66,262.04 -493.11,329.79 -429.1,231.71 -756.73,368.11 -1236.48,485.52 -305.09,74.68 -647.66,114.08 -984.56,118.72 -527.05,7.27 -1001.14,-75.25 -1483.14,-230.42l-540.55 -218.97c-60.02,-28.89 -124.43,-63.15 -182.22,-94.2 -16.73,-8.99 -25.85,-12.33 -43.08,-20.99 -15.75,-7.94 -25.47,-16.22 -44.39,-26.45 -32.96,-17.77 -61.31,-35.3 -90.04,-51.09l-83.06 -51.91c-28.7,-19.34 -57.69,-35.15 -85.69,-55.66 -93.62,-68.55 -187.92,-126.05 -277.24,-198.03 -13.91,-11.17 -24.35,-18.22 -39.81,-30.76l-185.7 -154.52c-39.21,-30.52 -72.24,-69.73 -108.78,-102.94l-137.25 -132.36c-38.28,-37.94 -100.93,-98.62 -133.47,-142.31 -39.69,-53.27 -86.45,-97.12 -126.94,-148.91 -106.94,-136.87 -191.16,-250.79 -286.57,-393.04 -53.38,-79.6 -116.18,-172.72 -157.97,-258.35 -72.9,-149.41 -163.63,-299.15 -221.9,-457.26 -37.58,-102.01 -77.66,-183.16 -112.42,-302.35 -8.93,-30.64 -22.93,-69.91 -32.58,-103.6l-88.36 -328.04c-37.62,-150.46 -54.07,-314.7 -79,-470.02 -12.83,-80.1 -12.1,-172.82 -23.05,-251.59 -34.68,-10.48 -875.41,-1.84 -963.33,5.42 -12.35,91.54 26.77,318.43 37.4,426.32 25.92,262.8 84.37,527.5 156.38,776.41 27.05,93.54 72.96,277.78 114.81,353.83 72.45,-6.23 393.39,-143.7 503.11,-178.32 23.88,34.62 40.2,94.24 57.85,138.88l179.43 415.04c-78.1,34.98 -158.69,76.67 -236.58,115.57 -58.38,29.15 -195.07,85.25 -239.3,120.71 13.59,68.08 163.1,305.73 211.65,384.12 102.94,166.21 210.22,319.44 324.84,476.85 31.4,43.11 62.74,77.15 87.35,116.77 55.4,-13.27 355.09,-300.1 427.49,-333.5 19.69,20.07 31.56,36.45 48,55.05 84.9,95.95 163.83,192.22 251.34,281.09 33.44,33.98 74.42,67.75 104.59,104.74 -48.27,61.27 -129.19,131.22 -186.69,189.45 -32.45,32.82 -59.56,61.31 -91.85,94.26 -17.46,17.84 -30,30.89 -47.53,48.68 -9.01,9.15 -13.4,13.68 -22.35,22.41 -13.81,13.46 -15.23,11.52 -25.05,28.2 19.57,38.2 239.88,216.66 294.8,265.3 150.75,133.41 333.15,262.86 501.65,371.7 41.76,26.95 82.62,60.26 127.67,79.28 68.07,-70.72 209.71,-361.44 283.81,-449.91 30.8,7.49 99.73,56.84 129.06,71.89 40.83,20.99 90.9,51.38 132.9,72.65l268.64 137.04c-13.42,52.64 -87.15,189.68 -112.55,242.41 -25.24,52.45 -107.72,208.44 -110.94,245.43 84.27,30.86 175.04,76.84 258.35,108.52 166.69,63.44 694.47,254.77 851.98,258.64l114.94 -515.65c48.51,1.4 105.7,17.34 146.15,24.83l294.26 46.48c43.79,5.43 114.3,10.93 153.41,20.74 19.88,82.24 -56.26,419.16 -46.57,530.7 180.62,27.71 406.05,25.11 590.59,23.56 91.19,-0.76 212.41,4.29 298.55,-6.47 93.79,-11.75 190.15,-19.36 282.64,-26.58l-63.05 -531.81c102.2,-18.6 203.16,-27.65 305.97,-45.21 87.89,-15.01 205.3,-51.15 291.75,-57.5l122.78 513.84c156.5,-7.34 681.35,-204.75 846.8,-273.94 87.95,-36.8 167.57,-76.36 258.39,-113.89 -13.59,-71.56 -133.13,-274.45 -175.17,-361.57 -16.18,-33.57 -48.63,-89.63 -57.43,-118.59 25.5,-19.34 26.1,-20.13 59.78,-35.59 114.37,-52.49 223.97,-120.43 332.43,-181.8 41.05,-23.24 87.6,-55.6 128.11,-77.03 37.11,34.97 116.18,171.93 148.81,222.54 30.23,46.8 114.34,190.92 147.87,222.35 65.72,-20.28 392.49,-272.19 478.47,-341.82 57.25,-46.35 113.85,-89.38 166.63,-141.58 18.16,-17.94 33.21,-28.99 55.37,-47.27l106.94 -98.72c23.24,-18.51 84.84,-79.25 101.66,-103.06 -15.71,-31.62 -164.78,-167.92 -188.25,-189.96l-147.38 -141.33c-16.04,-17.56 -35.12,-30.73 -48.43,-45.31l253.05 -270.41c36.8,-46.35 112.49,-142.46 150.69,-176.03 56.14,21.22 367.92,304.52 426.34,324.14 111.41,-131.92 237.01,-324.14 328.61,-470.98 6.76,-10.88 11.3,-16.41 18.23,-26.92l56.03 -97.38c41.03,-74.32 190.95,-323.15 206.98,-393.06 -41.75,-41.81 -387.64,-175.7 -481.39,-229.77 3.65,-32.48 43.09,-99.89 57.85,-134.53l112.94 -277.5c20.64,-50.99 34.76,-100.39 53.21,-144.01 62.8,12.06 185.58,61.09 252.06,84.24 43.44,15.11 225.8,81.56 259.08,82.8 73.72,-181.08 155.39,-539.98 189.96,-725.56 46.41,-249.05 88.26,-559.15 88.9,-836.3l-963.07 8.8 0.06 -0.28 0.01 0.03z"/>
   </g>
  </g>
  <path class="fil7" d="M10742.86 3250.52c4142.14,0 7500.01,3357.86 7500.01,7500.01 0,4142.14 -3357.86,7500.01 -7500.01,7500.01 -4142.14,0 -7500.01,-3357.86 -7500.01,-7500.01 0,-4142.14 3357.86,-7500.01 7500.01,-7500.01z"/>
  <path class="fil7" d="M10742.86 3250.52c4142.14,0 7500.01,3357.86 7500.01,7500.01 0,4142.14 -3357.86,7500.01 -7500.01,7500.01 -4142.14,0 -7500.01,-3357.86 -7500.01,-7500.01 0,-4142.14 3357.86,-7500.01 7500.01,-7500.01z"/>
  <path class="fil7 str0" d="M10742.86 3250.52c4142.14,0 7500.01,3357.86 7500.01,7500.01 0,4142.14 -3357.86,7500.01 -7500.01,7500.01 -4142.14,0 -7500.01,-3357.86 -7500.01,-7500.01 0,-4142.14 3357.86,-7500.01 7500.01,-7500.01z"/>
 </g>
</svg>
